<svg xmlns="http://www.w3.org/2000/svg">
    <symbol id="icon-nemesis" viewBox="0 0 32 32">
        <g id="nemesis-logo" style="fill-rule:evenodd;clip-rule:evenodd;stroke-linejoin:round;stroke-miterlimit:2;">
            <path id="path49" d="M9.65,31.868c-0.213,-0.175 -0.531,-0.573 -0.684,-0.856c-0.34,-0.628 -0.241,-1.327 0.267,-1.897l0.168,-0.189l-0.205,-0.026c-0.948,-0.121 -1.593,-0.668 -1.84,-1.56c-0.036,-0.128 -0.051,-0.232 -0.033,-0.232c0.017,-0 0.166,0.044 0.331,0.098c0.73,0.237 1.557,0.338 2.23,0.271c0.615,-0.061 0.898,-0.135 1.371,-0.358c0.447,-0.211 0.53,-0.293 0.298,-0.293c-0.229,-0 -0.635,-0.113 -0.882,-0.244c-0.338,-0.181 -0.72,-0.585 -0.92,-0.976c-0.093,-0.182 -0.182,-0.373 -0.199,-0.425c-0.029,-0.091 -0.025,-0.091 0.239,0.033c0.753,0.355 1.707,0.376 2.394,0.052c0.329,-0.155 0.649,-0.399 1.109,-0.847c0.995,-0.967 1.596,-2.198 1.792,-3.669c0.08,-0.599 0.079,-1.596 -0.002,-2.163c-0.034,-0.242 -0.057,-0.446 -0.049,-0.453c0.041,-0.039 0.565,0.67 0.757,1.025c0.486,0.9 0.553,1.58 0.26,2.63c-0.027,0.095 0.205,0.06 0.399,-0.059c0.21,-0.13 0.511,-0.485 0.712,-0.842c0.086,-0.152 0.172,-0.26 0.191,-0.242c0.066,0.063 0.172,0.705 0.171,1.036c-0.001,0.657 -0.216,1.156 -0.667,1.549c-0.145,0.127 -0.385,0.285 -0.533,0.35c-0.148,0.065 -0.269,0.131 -0.269,0.145c0,0.029 0.273,0.1 0.519,0.136c0.407,0.059 1.078,-0.175 1.502,-0.523c0.124,-0.103 0.226,-0.181 0.226,-0.173c-0,0.007 -0.039,0.126 -0.085,0.264c-0.267,0.793 -0.313,1.818 -0.11,2.453c0.069,0.217 0.319,0.627 0.395,0.65c0.028,0.008 0.079,-0.1 0.122,-0.26c0.127,-0.475 0.481,-1.063 0.709,-1.176c0.066,-0.033 0.073,0.007 0.074,0.453c0.001,0.575 0.07,0.863 0.319,1.336c0.384,0.729 1.106,1.177 2.24,1.387l0.377,0.07l-0.345,0.334c-1.082,1.044 -3.026,1.979 -5.057,2.43c-0.317,0.071 -0.527,0.087 -1.145,0.089c-0.678,0.002 -0.79,-0.008 -1.08,-0.093c-0.46,-0.134 -0.951,-0.388 -0.951,-0.491c-0,-0.017 0.102,-0.063 0.227,-0.101c0.583,-0.178 1.126,-0.55 1.291,-0.884c0.403,-0.82 -0.694,-1.077 -2.318,-0.544c-1.9,0.623 -3.04,1.638 -3.144,2.798l-0.011,0.119l-0.161,-0.132Zm15.184,-3.275c-0.89,-0.087 -1.687,-0.299 -2.542,-0.679c-0.91,-0.404 -1.424,-0.791 -1.642,-1.235c-0.092,-0.188 -0.106,-0.267 -0.092,-0.519c0.018,-0.329 0.087,-0.454 0.338,-0.614c0.179,-0.113 0.51,-0.12 0.757,-0.015c0.095,0.04 0.276,0.178 0.401,0.306c0.126,0.128 0.243,0.22 0.26,0.205c0.016,-0.016 0.03,-0.15 0.03,-0.298c-0,-0.214 -0.026,-0.316 -0.127,-0.51c-0.171,-0.328 -0.748,-0.86 -1.277,-1.179c-0.651,-0.392 -0.606,-0.343 -0.454,-0.495c0.071,-0.071 0.207,-0.163 0.302,-0.204c0.197,-0.085 0.584,-0.1 0.796,-0.031c0.308,0.1 0.207,-0.047 -0.226,-0.331c-0.372,-0.244 -0.712,-0.349 -1.264,-0.392c-0.528,-0.042 -0.78,-0.153 -1.11,-0.489c-0.28,-0.286 -0.42,-0.563 -0.421,-0.834c-0,-0.3 0.096,-0.397 0.396,-0.397c0.341,-0 0.459,0.097 0.887,0.73c0.088,0.13 0.069,-0.344 -0.025,-0.626c-0.113,-0.336 -0.306,-0.602 -0.66,-0.907c-0.246,-0.213 -0.438,-0.324 -1.065,-0.618c-0.838,-0.394 -1.245,-0.616 -1.608,-0.877c-0.265,-0.191 -0.575,-0.463 -0.551,-0.485c0.008,-0.008 0.131,0.012 0.272,0.044c0.142,0.033 0.458,0.071 0.702,0.085l0.444,0.027l-0.155,-0.339c-0.288,-0.631 -0.933,-1.65 -1.436,-2.269l-0.127,-0.157l0.955,-0.448c0.918,-0.431 1.668,-0.841 1.668,-0.911c0,-0.087 -2.776,-1.614 -2.835,-1.56c-0.016,0.015 1.022,0.928 1.616,1.422l0.197,0.164l-0.451,0.252c-0.786,0.442 -1.385,0.679 -1.993,0.79c-0.116,0.022 -0.115,0.024 0.238,0.435c0.52,0.606 1.036,1.358 1.274,1.857l0.055,0.115l-0.228,-0.028c-0.77,-0.093 -1.969,-0.503 -2.95,-1.008c-0.237,-0.122 -0.443,-0.218 -0.459,-0.212c-0.015,0.006 0.047,0.308 0.139,0.672c0.092,0.364 0.159,0.67 0.148,0.68c-0.011,0.01 -0.093,-0.036 -0.183,-0.102c-0.369,-0.271 -1.26,-0.75 -1.655,-0.889l-0.108,-0.038l-0.005,0.549c-0.007,1.051 -0.336,2.078 -1.021,3.187c-0.488,0.791 -0.912,1.251 -1.152,1.251c-0.106,-0 -0.264,-0.103 -0.264,-0.171c-0,-0.013 0.087,-0.155 0.193,-0.316c0.758,-1.147 0.937,-2.669 0.511,-4.369c-0.148,-0.595 -0.18,-0.648 -0.411,-0.679c-0.534,-0.072 -1.365,-0.07 -1.968,0.004l-0.616,0.076l0,-0.286c0,-0.495 0.209,-1.036 0.484,-1.252c0.067,-0.052 0.121,-0.104 0.121,-0.115c0,-0.023 -0.469,0.096 -0.821,0.208c-0.202,0.065 -0.246,0.097 -0.289,0.214c-0.121,0.322 -0.032,1.095 0.177,1.535c0.254,0.536 0.571,1.646 0.695,2.429c0.085,0.538 0.094,1.427 0.02,1.892l-0.055,0.344l0.153,0.215c0.508,0.713 0.64,1.269 0.469,1.964c-0.079,0.316 -0.092,0.473 -0.079,0.906c0.009,0.304 0.047,0.65 0.091,0.824c0.105,0.414 0.07,0.58 -0.167,0.794c-0.177,0.159 -0.574,0.336 -0.753,0.336c-0.05,0 -0.097,-0.044 -0.125,-0.118c-0.125,-0.335 -0.579,-0.85 -1.023,-1.162c-0.333,-0.233 -0.469,-0.377 -0.629,-0.664c-0.18,-0.324 -0.256,-0.666 -0.256,-1.162c-0.001,-0.538 0.104,-0.939 0.361,-1.382c0.105,-0.18 0.212,-0.423 0.238,-0.541c0.114,-0.507 0.018,-1.215 -0.293,-2.144c-0.339,-1.012 -0.777,-2.196 -0.811,-2.194c-0.02,0.001 -0.111,0.017 -0.203,0.036c-0.338,0.067 -0.982,-0.153 -1.278,-0.438l-0.137,-0.132l0.337,-0.025c0.551,-0.042 1.129,-0.248 1.072,-0.382c-0.016,-0.038 -0.039,-0.268 -0.053,-0.512c-0.04,-0.742 0.111,-1.041 0.694,-1.381c0.569,-0.331 1.032,-0.451 1.743,-0.452c0.783,-0.001 1.452,0.157 2.196,0.516l0.39,0.189l0.562,0.004c0.601,0.004 1.067,0.062 1.435,0.18c0.201,0.065 0.229,0.066 0.229,0.011c-0,-0.116 -0.493,-0.516 -0.852,-0.69c-1.011,-0.491 -2.313,-0.681 -4.419,-0.645c-1.24,0.02 -1.248,0.022 -1.429,0.295c-0.053,0.081 -0.131,0.249 -0.173,0.374l-0.075,0.227l-0.092,-0.14c-0.078,-0.119 -0.188,-0.367 -0.247,-0.555c-0.025,-0.08 -0.166,0.008 -0.274,0.17c-0.129,0.194 -0.189,0.555 -0.141,0.84c0.021,0.127 0.027,0.231 0.012,0.231c-0.053,0 -0.44,-0.319 -0.59,-0.487c-0.085,-0.095 -0.192,-0.241 -0.238,-0.326c-0.046,-0.085 -0.101,-0.154 -0.121,-0.154c-0.077,0 -0.377,0.134 -0.552,0.246c-0.1,0.064 -0.207,0.117 -0.239,0.116c-0.102,-0 -0.702,-0.262 -0.913,-0.397c-0.332,-0.213 -0.565,-0.631 -0.457,-0.819c0.099,-0.173 0.88,-0.432 1.682,-0.558c1.269,-0.199 3.796,-0.971 4.895,-1.497c0.699,-0.334 0.897,-0.564 1.214,-1.403c0.23,-0.61 0.515,-0.826 1.636,-1.242c2.059,-0.764 3.264,-1.013 4.635,-0.959c0.357,0.014 0.775,0.048 0.93,0.076l0.281,0.051l-0.239,0.165c-0.131,0.091 -0.35,0.224 -0.486,0.296c-0.136,0.071 -0.248,0.142 -0.247,0.156c0.001,0.08 0.274,0.455 0.415,0.57c0.172,0.14 0.596,0.341 0.816,0.385c0.124,0.025 0.12,0.018 -0.091,-0.169c-0.259,-0.229 -0.297,-0.275 -0.382,-0.465l-0.064,-0.143l0.614,-0.458c2.125,-1.583 3.54,-3.473 3.95,-5.274c0.109,-0.482 0.109,-1.511 -0.001,-1.948c-0.043,-0.174 -0.069,-0.325 -0.058,-0.336c0.035,-0.032 0.677,0.514 1.006,0.856c1.303,1.359 1.979,2.741 2.136,4.372c0.109,1.139 -0.193,2.579 -0.77,3.664l-0.203,0.383l-0.614,0.158c-0.338,0.086 -0.606,0.17 -0.596,0.185c0.01,0.016 0.16,0.038 0.333,0.051c0.83,0.059 1.518,0.555 2.555,1.843c0.821,1.019 1.619,1.739 2.294,2.069c0.211,0.103 0.212,0.104 0.101,0.143c-0.373,0.133 -1.168,0.203 -1.448,0.128c-0.196,-0.053 -0.175,-0.004 0.075,0.174c0.455,0.324 0.947,0.907 1.182,1.403c0.156,0.329 0.231,0.595 0.331,1.179c0.15,0.867 0.436,1.532 0.925,2.144c0.266,0.332 0.729,0.762 0.971,0.9c0.097,0.055 0.177,0.113 0.178,0.128c0.001,0.035 -0.358,0.141 -0.589,0.174c-0.099,0.014 -0.25,0.008 -0.335,-0.014c-0.086,-0.022 -0.155,-0.025 -0.155,-0.006c-0,0.073 0.908,0.827 1.262,1.049l0.376,0.235l-0.184,0.1c-0.523,0.286 -1.162,0.464 -1.426,0.396c-0.106,-0.027 -0.158,-0.027 -0.158,-0c-0,0.1 0.816,0.795 1.145,0.975c0.346,0.189 0.918,0.386 1.137,0.391c0.064,0.002 0.151,0.016 0.193,0.031c0.069,0.026 0.063,0.045 -0.058,0.199c-0.19,0.241 -0.568,0.48 -0.925,0.585c-0.241,0.071 -0.408,0.089 -0.811,0.089c-0.28,-0 -0.508,0.007 -0.508,0.015c-0,0.008 0.067,0.1 0.149,0.204c0.451,0.573 1.226,1.023 2.062,1.197c0.619,0.128 1.714,0.065 2.535,-0.147c0.158,-0.041 0.295,-0.067 0.305,-0.058c0.039,0.037 -0.637,0.813 -1.028,1.181c-1.77,1.666 -3.898,2.434 -6.136,2.216l-0,0Zm-18.345,-4.33c-0.04,-0.251 -0.02,-0.437 0.08,-0.726c0.024,-0.068 0,-0.102 -0.114,-0.168c-0.397,-0.228 -0.522,-0.124 -0.433,0.359c0.028,0.155 0.092,0.355 0.141,0.446c0.093,0.169 0.267,0.355 0.332,0.355c0.02,-0 0.017,-0.12 -0.006,-0.266l0,0Zm3.105,-13.388c0.118,-0.119 0.247,-0.231 0.285,-0.25c0.062,-0.031 0.066,-0.012 0.033,0.174c-0.02,0.116 -0.025,0.26 -0.011,0.321c0.023,0.102 0.041,0.111 0.232,0.111c0.567,-0 1.563,-0.239 2.186,-0.525c0.396,-0.182 1.014,-0.597 1.014,-0.681c0,-0.115 -0.93,-0.274 -1.318,-0.226c-0.142,0.018 -0.155,0.014 -0.071,-0.019c0.136,-0.054 1.018,-0.201 1.213,-0.202c0.235,-0.001 0.303,-0.063 0.104,-0.094c-0.547,-0.084 -1.579,-0.004 -2.304,0.179c-0.953,0.24 -1.601,0.791 -1.703,1.447l-0.028,0.181l0.076,-0.101c0.042,-0.055 0.173,-0.197 0.292,-0.315l-0,-0Zm10.925,-3.606c0.247,-0.135 0.449,-0.351 0.581,-0.62l0.105,-0.213l0.099,0.11c0.054,0.061 0.129,0.165 0.166,0.232c0.08,0.142 0.096,0.117 0.16,-0.262c0.075,-0.448 0.055,-1.428 -0.041,-1.941c-0.174,-0.936 -0.528,-1.788 -1.074,-2.582c-0.149,-0.218 -0.272,-0.317 -0.2,-0.162c0.07,0.151 0.073,1.111 0.004,1.481c-0.182,0.981 -0.667,1.855 -1.449,2.611c-0.295,0.286 -0.356,0.364 -0.306,0.396c0.067,0.041 0.603,0.024 0.766,-0.025c0.069,-0.021 0.097,-0.013 0.097,0.026c-0,0.09 -0.171,0.366 -0.318,0.513l-0.136,0.137l0.286,-0.024c0.332,-0.027 0.673,-0.138 0.883,-0.288c0.093,-0.066 0.149,-0.086 0.149,-0.054c0,0.07 -0.238,0.536 -0.346,0.678c-0.047,0.062 -0.086,0.131 -0.086,0.153c0,0.064 0.441,-0.047 0.66,-0.166l-0,0Zm-5.348,-0.344c-1.121,-0.417 -2.302,-0.421 -3.318,-0.011c-0.113,0.045 -0.205,0.075 -0.205,0.066c-0,-0.009 0.116,-0.167 0.258,-0.351c0.35,-0.454 0.75,-1.186 0.884,-1.619c0.194,-0.622 0.138,-1.223 -0.148,-1.591l-0.13,-0.167l0.142,-0c0.44,-0 1.229,0.324 1.629,0.67c0.636,0.549 1.001,1.352 1.125,2.475c0.028,0.257 0.045,0.502 0.036,0.545c-0.014,0.077 -0.021,0.077 -0.273,-0.017l0,-0Z" style="fill-rule:nonzero;"/>
        </g>
    </symbol>
</svg>
